<svg xmlns="http://www.w3.org/2000/svg" version="1.1" xmlns:xlink="http://www.w3.org/1999/xlink" xmlns:svgjs="http://svgjs.dev/svgjs" width="128" height="128" viewBox="0 0 128 128"><g transform="matrix(0.8046875,0,0,0.8046875,12.760752631578946,18.139714814964435)"><svg viewBox="0 0 95 85" data-background-color="#ffffff" preserveAspectRatio="xMidYMid meet" height="114" width="128" xmlns="http://www.w3.org/2000/svg" xmlns:xlink="http://www.w3.org/1999/xlink"><g id="tight-bounds" transform="matrix(1,0,0,1,-0.24049999999999727,-0.006395604395592613)"><svg viewBox="0 0 95.481 85.01279120879117" height="85.01279120879117" width="95.481"><g><svg viewBox="0 0 95.481 85.01279120879117" height="85.01279120879117" width="95.481"><g><svg viewBox="0 0 95.481 85.01279120879117" height="85.01279120879117" width="95.481"><g id="textblocktransform"><svg viewBox="0 0 95.481 85.01279120879117" height="85.01279120879117" width="95.481" id="textblock"><g><svg viewBox="0 0 95.481 85.01279120879117" height="85.01279120879117" width="95.481"><g><svg viewBox="0 0 95.481 85.01279120879117" height="85.01279120879117" width="95.481"><g><svg xmlns="http://www.w3.org/2000/svg" xmlns:xlink="http://www.w3.org/1999/xlink" version="1.1" x="0" y="0" viewBox="14.6 17.533705975217927 75.10000000000001 66.86629402478208" enable-background="new 0 0 100 100" xml:space="preserve" height="85.01279120879117" width="95.481" class="icon-icon-0" data-fill-palette-color="accent" id="icon-0"></svg></g></svg></g></svg></g></svg></g></svg></g><g></g></svg></g><defs></defs><mask id="64c6003f-fe47-44e3-823c-25b47718aa5f"><g id="SvgjsG1113"><svg viewBox="0 0 95.481 85.01279120879117" height="85.01279120879117" width="95.481"><g><svg viewBox="0 0 95.481 85.01279120879117" height="85.01279120879117" width="95.481"><g><svg viewBox="0 0 95.481 85.01279120879117" height="85.01279120879117" width="95.481"><g id="SvgjsG1112"><svg viewBox="0 0 95.481 85.01279120879117" height="85.01279120879117" width="95.481" id="SvgjsSvg1111"><g><svg viewBox="0 0 95.481 85.01279120879117" height="85.01279120879117" width="95.481"><g><svg viewBox="0 0 95.481 85.01279120879117" height="85.01279120879117" width="95.481"><g><svg xmlns="http://www.w3.org/2000/svg" xmlns:xlink="http://www.w3.org/1999/xlink" version="1.1" x="0" y="0" viewBox="14.6 17.533705975217927 75.10000000000001 66.86629402478208" enable-background="new 0 0 100 100" xml:space="preserve" height="85.01279120879117" width="95.481" class="icon-icon-0" data-fill-palette-color="accent" id="SvgjsSvg1110"><g fill="white"><g fill="white"><path d="M89.7 17.7c-0.9 16-4.5 27.3-20.5 40.3 0 6.8-2.7 13.6-8.2 18.4l-9.1-10.2c-1.9 1.8-4.4 2.7-6.8 2.8-3.2 0.1-6.3-1.1-8.6-3.6-4-4.5-3.6-11.4 0.8-15.4l-9.1-10.2c5.5-4.9 12.5-6.9 19.3-6.1C62.1 19.2 73.7 16.8 89.7 17.7zM73.1 42.3c3-2.7 3.2-7.2 0.6-10.2-1.5-1.6-3.5-2.5-5.7-2.4-1.7 0.1-3.3 0.7-4.5 1.8-3 2.7-3.2 7.2-0.6 10.2 1.5 1.6 3.5 2.5 5.7 2.4C70.2 44 71.8 43.4 73.1 42.3z" fill="white"></path></g></g><g fill="white"><path d="M14.6 84.4l0.5-1.6c0.1-0.4 2.9-9.9 6.5-13.6 2-2 4.4-3.1 6.6-3.1 1.4 0 2.5 0.4 3.4 1.3 2.3 2.3 1.5 6.7-1.8 10-3.9 3.9-13.2 6.4-13.6 6.6L14.6 84.4z" fill="white"></path></g></svg></g></svg></g></svg></g></svg></g></svg></g><g></g></svg></g><defs><mask></mask></defs></svg></g></mask><linearGradient x1="0" x2="1" y1="0.548" y2="0.55" id="c7e48ff7-81dc-4c2d-8858-594dfa090c50"><stop stop-color="#ff6cab" offset="0"></stop><stop stop-color="#7366ff" offset="1"></stop></linearGradient><rect width="95.481" height="85.01279120879117" fill="url(#c7e48ff7-81dc-4c2d-8858-594dfa090c50)" mask="url(#64c6003f-fe47-44e3-823c-25b47718aa5f)" data-fill-palette-color="accent"></rect></svg><rect width="95.481" height="85.01279120879117" fill="none" stroke="none" visibility="hidden"></rect></g></svg></g></svg>